<svg xmlns="http://www.w3.org/2000/svg" viewBox="0 0 1200 900">
<defs><linearGradient id="silver" x1="0" y1="0" x2="1" y2="1"><stop offset="0" stop-color="#d0d1cc"/><stop offset=".45" stop-color="#8f918b"/><stop offset="1" stop-color="#c4c5bf"/></linearGradient><filter id="s" x="-30%" y="-30%" width="180%" height="180%"><feDropShadow dx="24" dy="34" stdDeviation="26" flood-opacity=".42"/></filter></defs>
<rect width="1200" height="900" fill="#171815"/><g opacity=".18" stroke="#d7d6ce"><path d="M0 150H1200M0 300H1200M0 450H1200M0 600H1200M0 750H1200"/><path d="M150 0V900M300 0V900M450 0V900M600 0V900M750 0V900M900 0V900M1050 0V900"/></g>
<g filter="url(#s)" transform="translate(235 140)"><g transform="rotate(1 365 210)"><rect x="85" y="0" width="560" height="320" rx="24" fill="url(#silver)" stroke="#5c5d58" stroke-width="3"/><rect x="112" y="28" width="506" height="247" rx="5" fill="#22231f"/><rect x="125" y="41" width="480" height="221" rx="2" fill="#d7d5ca"/><text x="147" y="70" font-family="monospace" font-size="13" fill="#242521">DRAFT_0084.TXT</text><text x="522" y="70" font-family="monospace" font-size="13" fill="#242521">21:42</text><text x="147" y="132" font-family="Georgia,serif" font-size="23" fill="#242521">The best tools leave enough</text><text x="147" y="166" font-family="Georgia,serif" font-size="23" fill="#242521">room for thought.</text><rect x="149" y="191" width="13" height="25" fill="#252620"/><text x="147" y="241" font-family="monospace" font-size="11" fill="#454640">1,284 WORDS</text><text x="535" y="241" font-family="monospace" font-size="11" fill="#454640">SAVED</text><text x="112" y="301" font-family="monospace" font-size="11" fill="#252620">lessware · d–01</text></g><rect x="153" y="316" width="425" height="18" rx="8" fill="#50514c"/><g transform="translate(20 332)"><path d="M70 0H660L730 300H0Z" fill="#7b7c76" stroke="#4e4f4a" stroke-width="3"/><g fill="#22231f"><g transform="translate(74 46)"><rect x="0" y="0" width="44" height="37" rx="4"/><rect x="54" y="0" width="44" height="37" rx="4"/><rect x="108" y="0" width="44" height="37" rx="4"/><rect x="162" y="0" width="44" height="37" rx="4"/><rect x="216" y="0" width="44" height="37" rx="4"/><rect x="270" y="0" width="44" height="37" rx="4"/><rect x="324" y="0" width="44" height="37" rx="4"/><rect x="378" y="0" width="44" height="37" rx="4"/><rect x="432" y="0" width="44" height="37" rx="4"/><rect x="486" y="0" width="44" height="37" rx="4"/><g transform="translate(18 53)"><rect x="0" y="0" width="44" height="37" rx="4"/><rect x="54" y="0" width="44" height="37" rx="4"/><rect x="108" y="0" width="44" height="37" rx="4"/><rect x="162" y="0" width="44" height="37" rx="4"/><rect x="216" y="0" width="44" height="37" rx="4"/><rect x="270" y="0" width="44" height="37" rx="4"/><rect x="324" y="0" width="44" height="37" rx="4"/><rect x="378" y="0" width="44" height="37" rx="4"/><rect x="432" y="0" width="44" height="37" rx="4"/></g><g transform="translate(40 106)"><rect x="0" y="0" width="44" height="37" rx="4"/><rect x="54" y="0" width="44" height="37" rx="4"/><rect x="108" y="0" width="44" height="37" rx="4"/><rect x="162" y="0" width="44" height="37" rx="4"/><rect x="216" y="0" width="44" height="37" rx="4"/><rect x="270" y="0" width="44" height="37" rx="4"/><rect x="324" y="0" width="44" height="37" rx="4"/><rect x="378" y="0" width="44" height="37" rx="4"/></g><rect x="158" y="159" width="250" height="37" rx="4"/></g></g></g></g>
<g fill="#ecebe4" font-family="monospace" font-size="18"><text x="96" y="162">01 — E-INK WRITING SURFACE</text><text x="853" y="390">02 — FOLDING HINGE</text><text x="82" y="764">03 — TACTILE KEYBOARD</text><text x="835" y="738">04 — LOCAL-FIRST FILES</text></g><g stroke="#ecebe4" stroke-width="1.5" fill="none" opacity=".55"><path d="M345 158h120l42 59"/><path d="M820 385h-93l-59 72"/><path d="M350 758h215l52-112"/><path d="M810 733h-160l-60-66"/></g></svg>